<?xml version="1.0" encoding="iso-8859-1"?>
<!-- Uploaded to: SVG Repo, www.svgrepo.com, Generator: SVG Repo Mixer Tools -->
<svg version="1.1" id="Layer_1" xmlns="http://www.w3.org/2000/svg" xmlns:xlink="http://www.w3.org/1999/xlink" 
	 viewBox="0 0 512 512" xml:space="preserve">
<path style="fill:#FFC36E;" d="M485.517,70.621H192.982c-7.637,0-14.902-3.297-19.93-9.044l-12.433-14.208
	c-6.705-7.663-16.391-12.058-26.573-12.058H17.655C7.904,35.31,0,43.214,0,52.966v114.759h512V97.103
	C512,82.477,500.143,70.621,485.517,70.621z"/>
<path style="fill:#FFD782;" d="M485.517,105.931H26.483C11.857,105.931,0,117.788,0,132.414v317.793
	c0,14.626,11.857,26.483,26.483,26.483h459.034c14.626,0,26.483-11.857,26.483-26.483V132.414
	C512,117.788,500.143,105.931,485.517,105.931z"/>
<path style="fill:#959CB3;" d="M387.082,210.163c-6.894-6.894-18.073-6.895-24.968,0l-17.252,17.252l-18.727-6.241l-6.242-18.727
	l17.252-17.252c6.895-6.895,6.895-18.073,0-24.968c-6.894-6.894-18.073-6.895-24.968,0l-24.968,24.968
	c-4.728,4.728-6.38,11.723-4.265,18.067L288.857,221L185.689,324.168l-17.738-5.912c-6.343-2.113-13.337-0.465-18.067,4.265
	l-24.968,24.968c-6.895,6.895-6.895,18.073,0,24.968c6.894,6.894,18.073,6.895,24.968,0l17.252-17.252l18.727,6.242l6.242,18.727
	l-17.252,17.252c-6.895,6.895-6.895,18.073,0,24.968c3.447,3.447,7.966,5.171,12.483,5.171s9.036-1.724,12.483-5.172l24.968-24.968
	c4.728-4.728,6.38-11.723,4.265-18.067l-5.912-17.737l103.168-103.168l17.738,5.912c1.829,0.609,3.712,0.906,5.581,0.906
	c4.609,0,9.122-1.806,12.486-5.172l24.968-24.968C393.977,228.236,393.977,217.058,387.082,210.163z"/>
<path style="fill:#858AA0;" d="M203.034,331.791l93.447-93.447c3.447-3.447,9.037-3.447,12.484,0l0,0
	c3.447,3.447,3.447,9.037,0,12.484l-93.447,93.447c-3.447,3.447-9.037,3.447-12.484,0l0,0
	C199.587,340.829,199.587,335.239,203.034,331.791z"/>
<path style="fill:#AFB9D2;" d="M356.35,379.176l-98.521-98.521l-12.484,12.484l98.521,98.521
	c-1.554,5.878-0.099,12.385,4.511,16.994l12.484,12.484c3.447,3.447,9.036,3.447,12.484,0l12.484-12.484
	c3.447-3.447,3.447-9.037,0-12.484l-12.484-12.484C368.735,379.076,362.228,377.622,356.35,379.176z"/>
<rect x="231.171" y="267.749" transform="matrix(-0.7071 0.7071 -0.7071 -0.7071 625.6857 309.1006)" style="fill:#D2555A;" width="35.31" height="32.77"/>
<g>
	<path style="fill:#FF6464;" d="M256.806,267.148l-24.968,24.968c-6.894,6.894-18.073,6.894-24.968,0l-78.112-78.112
		c-6.894-6.894-6.894-18.073,0-24.968l24.968-24.968c6.894-6.894,18.073-6.894,24.968,0l78.112,78.112
		C263.701,249.075,263.701,260.254,256.806,267.148z"/>
	<path style="fill:#FF6464;" d="M279.897,290.239l-24.968,24.968c-3.447,3.447-9.037,3.447-12.484,0l0,0
		c-3.447-3.447-3.447-9.037,0-12.484l24.968-24.968c3.447-3.447,9.037-3.447,12.484,0l0,0
		C283.345,281.203,283.345,286.792,279.897,290.239z"/>
</g>
<path style="fill:#D2555A;" d="M219.788,267.582l-66.062-66.062c-3.447-3.447-3.447-9.037,0-12.484l0,0
	c3.447-3.447,9.037-3.447,12.484,0l66.062,66.062c3.447,3.447,3.447,9.037,0,12.484l0,0
	C228.824,271.03,223.235,271.03,219.788,267.582z"/>
</svg>